PathFileType	4	(X/Y/Z)	Walk8.trc
DataRate	CameraRate	NumFrames	NumMarkers	Units	OrigDataRate	OrigDataStartFrame	OrigNumFrames
200.000000	200.000000	5	61	mm	200.000000	299	439
Frame#	Times		LFHD		RFHD		LBHD		CLAV		STRN		LASI		RASI		RACR1		RUA1		RFA1		RWRR		RWRU		RCAR		LACR1		LUA1		LFA1		LWRU		LCAR		RTH3		RTH2		RTH4		RMFC		RTB1		RTB3		RTB4		RMT5		LTH1		LTH3		LTH2		LTH4		LLFC		LTB1		LTB3		LTB2		LTB4		LMMAL		LToe		RLFC		RTH1		RElbow		RToe		RTB2		T10		LElbow		RMT1		RMMAL		LMFC		LPSI		RBack		LWRR		LMT5		RBHD		RLMAL		LCAL		RPSI		RCAL		LLMAL		RElbowM		C7		LMT1		LElbowM
			X1	Y1	Z1	X2	Y2	Z2	X3	Y3	Z3	X4	Y4	Z4	X5	Y5	Z5	X6	Y6	Z6	X7	Y7	Z7	X8	Y8	Z8	X9	Y9	Z9	X10	Y10	Z10	X11	Y11	Z11	X12	Y12	Z12	X13	Y13	Z13	X14	Y14	Z14	X15	Y15	Z15	X16	Y16	Z16	X17	Y17	Z17	X18	Y18	Z18	X19	Y19	Z19	X20	Y20	Z20	X21	Y21	Z21	X22	Y22	Z22	X23	Y23	Z23	X24	Y24	Z24	X25	Y25	Z25	X26	Y26	Z26	X27	Y27	Z27	X28	Y28	Z28	X29	Y29	Z29	X30	Y30	Z30	X31	Y31	Z31	X32	Y32	Z32	X33	Y33	Z33	X34	Y34	Z34	X35	Y35	Z35	X36	Y36	Z36	X37	Y37	Z37	X38	Y38	Z38	X39	Y39	Z39	X40	Y40	Z40	X41	Y41	Z41	X42	Y42	Z42	X43	Y43	Z43	X44	Y44	Z44	X45	Y45	Z45	X46	Y46	Z46	X47	Y47	Z47	X48	Y48	Z48	X49	Y49	Z49	X50	Y50	Z50	X51	Y51	Z51	X52	Y52	Z52	X53	Y53	Z53	X54	Y54	Z54	X55	Y55	Z55	X56	Y56	Z56	X57	Y57	Z57	X58	Y58	Z58	X59	Y59	Z59	X60	Y60	Z60	X61	Y61	Z61

299	1.495	624.35	1600.4	-32.981	619.83	1599.7	66.472	486.22	1528.4	-62.146	596.64	1321	8.5479	619.32	1186.7	7.9419	567.67	909.83	-100.55	588.15	930.71	146.34	529.59	1350.6	177.91	524.89	1182.5	234.8	569.44	900.19	303.55	580.97	780.12	310.51	637.45	794.39	273.65	633.38	724.97	320.52	517.51	1368.9	-143.04	493.55	1193.8	-198.75	489.72	901.21	-236.96	549.49	791.13	-224.16	522.6	723.48	-254.04	548.1	591.2	187.01	599.47	683.27	186.53	544.49	672.66	206.99	523.25	438.71	28.331	569.14	333.63	117.33	533.65	165.39	92.921	552.48	248.55	106.75	564.83	23.519	119.04	543.83	740.58	-158.05	590.59	577.13	-132.8	621.2	677.7	-129.82	566.59	658.21	-146.4	611.79	446.75	-117.23	585.42	344.54	-52.363	454.3	235.34	-42.916	504.7	302.59	-106.73	516.97	291.23	-48.107	360.05	197.83	-5.7167	453.61	36.705	-43.494	557.25	443.29	152.55	541.95	757.29	230.32	512.37	1018.8	276.19	653.91	26.354	65.607	507.84	252.63	148.81	407.75	1212	20.23	465.25	1037.7	-213	599.54	33.271	32.039	477.68	85.428	24.459	607.03	438.61	21.834	398.78	964.83	-15.987	408.97	1296.9	87.746	480.27	784.74	-220.51	386.36	87.472	-90.81	482.32	1533.7	81.147	464.15	63.296	104.72	278.62	208.99	-44.126	409.48	968.06	83.855	411.65	40.865	60.159	338.34	193.14	-87.115	485	1008.8	200.89	484.65	1422.5	12.945	414.83	75.118	-15.776	456.44	1021.7	-139.74
300	1.5	631.75	1600.9	-33.069	627.21	1600.3	66.386	493.37	1529.3	-62.199	603.53	1321.9	8.6091	626.35	1187.7	8.0404	574.75	910.97	-100.6	595.24	930.91	146.25	536.62	1351.8	177.98	532.86	1183.6	234.92	579.83	901.68	303.17	592.79	781.77	309.81	648.98	796.69	272.78	645.81	727.14	319.55	524.02	1369.6	-142.97	499.53	1194.3	-198.23	491.98	901.8	-235.72	549.67	790.45	-223.12	521.22	723.17	-252.68	552.69	591.22	186.6	604.96	682.76	184.89	550.39	672.6	206.27	524.18	438.62	27.988	570.15	333.59	116.92	534.16	165.47	92.65	553.25	248.56	106.4	564.92	23.572	118.87	551.88	741.98	-158.48	600.65	579.16	-132.99	630.13	680.12	-130.4	575.71	659.87	-146.72	623.74	448.89	-117.22	599.74	346.09	-52.35	471.5	233.55	-42.641	520.06	302.06	-106.56	532.72	291.03	-47.961	378.46	193.34	-5.4563	477.08	35.741	-44.1	559.02	443.21	152.23	549.08	757.45	229.48	521.33	1019.8	276.22	654.2	26.193	65.696	508.68	252.8	148.53	414.87	1212.6	20.699	470.23	1038.4	-211.68	599.73	33.209	31.919	478	85.632	24.216	619.35	440.99	21.701	405.92	965.72	-15.996	416.05	1297.6	88.102	480.31	785.49	-219.29	407.98	84.438	-90.897	489.47	1534.8	81.196	464.33	63.618	104.44	296.41	202.09	-43.364	416.61	968.71	83.9	411.83	41.333	59.916	356.61	188.21	-86.675	493.83	1009.8	200.93	491.44	1423.2	12.997	437.15	72.726	-15.994	461.66	1022.7	-138.4
301	1.505	639.13	1601.4	-33.179	634.57	1600.9	66.277	500.53	1530.2	-62.269	610.44	1322.7	8.6809	633.4	1188.7	8.2024	581.83	912.01	-100.63	602.29	931.05	146.16	543.66	1352.8	178.06	540.79	1184.7	235.06	590.19	903.11	302.78	604.62	783.38	309.07	660.51	798.98	271.89	658.25	729.3	318.55	530.55	1370.1	-142.89	505.54	1194.7	-197.71	494.26	902.39	-234.48	549.9	789.84	-222.1	519.91	722.95	-251.34	557.21	591.23	186.16	610.4	682.22	183.24	556.24	672.49	205.52	525.1	438.58	27.673	571.15	333.59	116.53	534.67	165.58	92.392	554.03	248.6	106.07	565.02	23.625	118.69	559.88	743.3	-158.92	610.59	581.11	-133.21	638.96	682.45	-131.01	584.74	661.46	-147.06	635.49	450.94	-117.24	613.95	347.6	-52.353	488.82	231.65	-42.407	535.43	301.39	-106.44	548.46	290.75	-47.846	397.09	188.67	-5.2331	500.74	34.765	-44.791	560.75	443.16	151.94	556.2	757.57	228.63	530.23	1020.7	276.25	654.48	26.04	65.785	509.5	253	148.25	422	1213.1	21.153	475.18	1039.1	-210.39	599.93	33.147	31.8	478.34	85.873	23.962	631.4	443.32	21.503	413.05	966.55	-16.028	423.15	1298.2	88.45	480.43	786.27	-218.07	429.83	81.304	-91.055	496.62	1535.9	81.228	464.51	63.971	104.15	314.52	194.92	-42.676	423.71	969.3	83.918	412.02	41.837	59.644	375.15	183.07	-86.313	502.64	1010.7	200.98	498.25	1423.8	13.053	459.71	70.291	-16.29	466.87	1023.7	-137.1
302	1.51	646.5	1601.8	-33.309	641.91	1601.4	66.147	507.69	1531	-62.355	617.36	1323.4	8.7623	640.45	1189.5	8.422	588.92	912.95	-100.65	609.31	931.13	146.09	550.71	1353.8	178.15	548.7	1185.6	235.2	600.52	904.48	302.39	616.45	784.95	308.3	672.03	801.26	270.98	670.7	731.45	317.5	537.11	1370.6	-142.8	511.59	1195.1	-197.19	496.57	902.97	-233.26	550.17	789.29	-221.09	518.69	722.82	-250.02	561.65	591.22	185.7	615.77	681.64	181.62	562.03	672.35	204.73	526.01	438.59	27.388	572.15	333.62	116.18	535.19	165.71	92.153	554.8	248.66	105.76	565.11	23.678	118.49	567.86	744.55	-159.37	620.39	582.97	-133.44	647.69	684.66	-131.62	593.67	662.96	-147.42	647.05	452.89	-117.26	628.04	349.05	-52.376	506.25	229.66	-42.223	550.82	300.6	-106.36	564.2	290.39	-47.766	415.94	183.85	-5.0562	524.58	33.802	-45.556	562.46	443.11	151.67	563.27	757.62	227.79	539.09	1021.5	276.29	654.74	25.895	65.873	510.3	253.22	147.98	429.14	1213.6	21.591	480.12	1039.7	-209.13	600.14	33.088	31.682	478.71	86.157	23.699	643.18	445.57	21.243	420.18	967.3	-16.081	430.26	1298.7	88.791	480.63	787.08	-216.84	451.9	78.099	-91.283	503.76	1536.8	81.242	464.69	64.355	103.83	332.96	187.52	-42.073	430.79	969.82	83.91	412.22	42.377	59.341	393.95	177.74	-86.032	511.42	1011.6	201.03	505.1	1424.4	13.113	482.49	67.843	-16.661	472.07	1024.6	-135.85
303	1.515	653.85	1602.1	-33.458	649.24	1601.8	65.997	514.86	1531.6	-62.452	624.31	1324	8.8521	647.5	1190.3	8.6927	596.02	913.79	-100.67	616.29	931.14	146.03	557.77	1354.6	178.24	556.59	1186.4	235.36	610.84	905.79	301.99	628.28	786.49	307.51	683.53	803.52	270.05	683.16	733.58	316.41	543.71	1370.9	-142.71	517.66	1195.3	-196.66	498.92	903.54	-232.06	550.5	788.8	-220.1	517.56	722.78	-248.73	566.02	591.2	185.23	621.08	681.04	180.03	567.73	672.17	203.93	526.94	438.67	27.135	573.14	333.67	115.87	535.71	165.88	91.936	555.57	248.75	105.49	565.19	23.731	118.29	575.8	745.72	-159.82	630.06	584.73	-133.68	656.34	686.74	-132.24	602.51	664.38	-147.79	658.39	454.72	-117.31	642	350.44	-52.424	523.79	227.58	-42.093	566.22	299.7	-106.34	579.94	289.97	-47.727	435.04	178.92	-4.9341	548.58	32.881	-46.386	564.15	443.08	151.42	570.26	757.63	226.97	547.9	1022.2	276.34	654.99	25.758	65.962	511.08	253.48	147.72	436.28	1213.9	22.009	485.04	1040.2	-207.9	600.35	33.031	31.565	479.11	86.484	23.425	654.68	447.73	20.925	427.3	967.97	-16.155	437.38	1299.1	89.123	480.93	787.9	-215.6	474.2	74.851	-91.582	510.9	1537.7	81.239	464.86	64.772	103.51	351.75	179.92	-41.564	437.84	970.28	83.877	412.42	42.954	59.005	413.03	172.27	-85.835	520.16	1012.4	201.09	511.98	1424.8	13.175	505.49	65.415	-17.105	477.26	1025.5	-134.64
